<svg width="500" height="500" viewBox="0 0 500 500" fill="none" xmlns="http://www.w3.org/2000/svg">
<rect width="500" height="500" fill="white"/>
<path d="M287.455 77.7512C275.672 74.034 263.047 72 250.002 72C211.918 72 177.831 89.1835 155.037 116.256L213.601 165.492L287.455 77.7512Z" fill="#1A73E8"/>
<path d="M155.037 116.256C136.261 138.557 125.975 166.779 126 195.932C126 219.217 130.629 238.154 138.274 255.057L213.601 165.492L155.037 116.256Z" fill="#1A73E8"/>
<path d="M250.002 148.59C259.043 148.598 267.893 151.189 275.511 156.059C283.128 160.929 289.196 167.874 292.998 176.076C296.801 184.279 298.181 193.397 296.975 202.357C295.769 211.317 292.028 219.746 286.192 226.652L359.976 138.911C344.831 109.732 318.722 87.7594 287.385 77.8215L213.671 165.563C218.113 160.244 223.669 155.966 229.948 153.033C236.226 150.1 243.072 148.583 250.002 148.59" fill="#4285F4"/>
<path d="M250.002 243.414C223.841 243.414 202.589 222.163 202.589 196.002C202.559 184.862 206.486 174.075 213.671 165.562L138.274 255.127C151.179 283.673 172.571 306.607 194.594 335.504L286.192 226.651C281.742 231.909 276.199 236.133 269.948 239.029C263.697 241.924 256.89 243.42 250.002 243.414Z" fill="#4285F4"/>
<path d="M284.369 365.172C325.75 300.506 373.934 271.118 373.934 195.932C373.934 175.312 368.884 155.884 359.976 138.77L194.664 335.504C201.678 344.692 208.761 354.441 215.635 365.242C240.744 404.098 233.8 427.383 250.002 427.383C266.203 427.383 259.26 404.028 284.369 365.172Z" fill="#1A73E8"/>
</svg>
